<svg width="75" height="50" viewBox="0 0 75 50" fill="none" xmlns="http://www.w3.org/2000/svg">
<path d="M3.46446 1.89466C3.51835 1.386 3.94739 1 4.4589 1H72.1174C72.6548 1 73.0962 1.42483 73.1166 1.96189L73.9902 24.868C73.9937 24.9597 73.9845 25.0515 73.963 25.1407L74.9351 25.3754L73.963 25.1407L68.44 48.0219C68.3316 48.4709 67.9298 48.7872 67.4679 48.7872H8.73198C8.28802 48.7872 7.89722 48.4945 7.77235 48.0685L1.07093 25.2048C1.03418 25.0795 1.02236 24.9481 1.03612 24.8182L3.46446 1.89466Z" fill="#9A9A9A" stroke="black" stroke-width="2"/>
<ellipse cx="11.766" cy="8.0851" rx="2.76596" ry="2.76596" fill="black"/>
<ellipse cx="55.383" cy="8.0851" rx="2.76596" ry="2.76596" fill="black"/>
<ellipse cx="64.1064" cy="8.0851" rx="2.76596" ry="2.76596" fill="black"/>
<ellipse cx="46.6596" cy="8.0851" rx="2.76596" ry="2.76596" fill="black"/>
<ellipse cx="37.9361" cy="8.0851" rx="2.76596" ry="2.76596" fill="black"/>
<ellipse cx="29.2127" cy="8.0851" rx="2.76596" ry="2.76596" fill="black"/>
<ellipse cx="20.4894" cy="8.0851" rx="2.76596" ry="2.76596" fill="black"/>
<ellipse cx="8.80844" cy="18.7234" rx="2.76596" ry="2.76596" fill="black"/>
<ellipse cx="56.468" cy="18.7234" rx="2.76596" ry="2.76596" fill="black"/>
<ellipse cx="66" cy="18.7234" rx="2.76596" ry="2.76596" fill="black"/>
<ellipse cx="46.9361" cy="18.7234" rx="2.76596" ry="2.76596" fill="black"/>
<ellipse cx="37.4042" cy="18.7234" rx="2.76596" ry="2.76596" fill="black"/>
<ellipse cx="27.8723" cy="18.7234" rx="2.76596" ry="2.76596" fill="black"/>
<ellipse cx="18.3404" cy="18.7234" rx="2.76596" ry="2.76596" fill="black"/>
<ellipse cx="8.80844" cy="28.7234" rx="2.76596" ry="2.76596" fill="black"/>
<ellipse cx="56.468" cy="28.7234" rx="2.76596" ry="2.76596" fill="black"/>
<ellipse cx="66" cy="28.7234" rx="2.76596" ry="2.76596" fill="black"/>
<ellipse cx="46.9361" cy="28.7234" rx="2.76596" ry="2.76596" fill="black"/>
<ellipse cx="37.4042" cy="28.7234" rx="2.76596" ry="2.76596" fill="black"/>
<ellipse cx="27.8723" cy="28.7234" rx="2.76596" ry="2.76596" fill="black"/>
<ellipse cx="18.3404" cy="28.7234" rx="2.76596" ry="2.76596" fill="black"/>
<ellipse cx="11.4893" cy="40" rx="2.76596" ry="2.76596" fill="black"/>
<ellipse cx="55.1064" cy="40" rx="2.76596" ry="2.76596" fill="black"/>
<ellipse cx="63.8298" cy="40" rx="2.76596" ry="2.76596" fill="black"/>
<ellipse cx="46.383" cy="40" rx="2.76596" ry="2.76596" fill="black"/>
<ellipse cx="37.6595" cy="40" rx="2.76596" ry="2.76596" fill="black"/>
<ellipse cx="28.9361" cy="40" rx="2.76596" ry="2.76596" fill="black"/>
<ellipse cx="20.2128" cy="40" rx="2.76596" ry="2.76596" fill="black"/>
</svg>
