<svg width="26" height="24" viewBox="0 0 26 24" fill="none" xmlns="http://www.w3.org/2000/svg">
<path d="M13 23.25C12.6458 23.25 12.349 23.1302 12.1094 22.8906C11.8698 22.651 11.75 22.3542 11.75 22C11.75 21.6458 11.8698 21.349 12.1094 21.1094C12.349 20.8698 12.6458 20.75 13 20.75H21.75V11.875C21.75 9.4375 20.901 7.36979 19.2031 5.67188C17.5052 3.97396 15.4375 3.125 13 3.125C10.5625 3.125 8.49479 3.97396 6.79688 5.67188C5.09896 7.36979 4.25 9.4375 4.25 11.875V18.25C4.25 18.6042 4.13021 18.901 3.89062 19.1406C3.65104 19.3802 3.35417 19.5 3 19.5C2.3125 19.5 1.72396 19.2552 1.23438 18.7656C0.744792 18.276 0.5 17.6875 0.5 17V14.5C0.5 14.0625 0.609375 13.651 0.828125 13.2656C1.04688 12.8802 1.35417 12.5729 1.75 12.3438L1.84375 10.6875C2.01042 9.27083 2.42188 7.95833 3.07812 6.75C3.73438 5.54167 4.55729 4.48958 5.54688 3.59375C6.53646 2.69792 7.67188 2 8.95312 1.5C10.2344 1 11.5833 0.75 13 0.75C14.4167 0.75 15.7604 1 17.0312 1.5C18.3021 2 19.4375 2.69271 20.4375 3.57812C21.4375 4.46354 22.2604 5.51042 22.9062 6.71875C23.5521 7.92708 23.9688 9.23958 24.1562 10.6562L24.25 12.2812C24.6458 12.4688 24.9531 12.75 25.1719 13.125C25.3906 13.5 25.5 13.8958 25.5 14.3125V17.1875C25.5 17.6042 25.3906 18 25.1719 18.375C24.9531 18.75 24.6458 19.0312 24.25 19.2188V20.75C24.25 21.4375 24.0052 22.026 23.5156 22.5156C23.026 23.0052 22.4375 23.25 21.75 23.25H13ZM9.25 14.5C8.89583 14.5 8.59896 14.3802 8.35938 14.1406C8.11979 13.901 8 13.6042 8 13.25C8 12.8958 8.11979 12.599 8.35938 12.3594C8.59896 12.1198 8.89583 12 9.25 12C9.60417 12 9.90104 12.1198 10.1406 12.3594C10.3802 12.599 10.5 12.8958 10.5 13.25C10.5 13.6042 10.3802 13.901 10.1406 14.1406C9.90104 14.3802 9.60417 14.5 9.25 14.5ZM16.75 14.5C16.3958 14.5 16.099 14.3802 15.8594 14.1406C15.6198 13.901 15.5 13.6042 15.5 13.25C15.5 12.8958 15.6198 12.599 15.8594 12.3594C16.099 12.1198 16.3958 12 16.75 12C17.1042 12 17.401 12.1198 17.6406 12.3594C17.8802 12.599 18 12.8958 18 13.25C18 13.6042 17.8802 13.901 17.6406 14.1406C17.401 14.3802 17.1042 14.5 16.75 14.5ZM5.53125 12.5625C5.38542 10.3542 6.05208 8.45833 7.53125 6.875C9.01042 5.29167 10.8542 4.5 13.0625 4.5C14.9167 4.5 16.5469 5.08854 17.9531 6.26562C19.3594 7.44271 20.2083 8.94792 20.5 10.7812C18.6042 10.7604 16.8594 10.25 15.2656 9.25C13.6719 8.25 12.4479 6.89583 11.5938 5.1875C11.2604 6.85417 10.5573 8.33854 9.48438 9.64062C8.41146 10.9427 7.09375 11.9167 5.53125 12.5625Z" fill="#393939"/>
</svg>
