<svg width="24" height="24" viewBox="0 0 24 24" fill="none" xmlns="http://www.w3.org/2000/svg">
<path d="M12 23.25C11.6458 23.25 11.349 23.1302 11.1094 22.8906C10.8698 22.651 10.75 22.3542 10.75 22V17C10.75 16.6458 10.8698 16.349 11.1094 16.1094C11.349 15.8698 11.6458 15.75 12 15.75C12.3542 15.75 12.651 15.8698 12.8906 16.1094C13.1302 16.349 13.25 16.6458 13.25 17V18.25H22C22.3542 18.25 22.651 18.3698 22.8906 18.6094C23.1302 18.849 23.25 19.1458 23.25 19.5C23.25 19.8542 23.1302 20.151 22.8906 20.3906C22.651 20.6302 22.3542 20.75 22 20.75H13.25V22C13.25 22.3542 13.1302 22.651 12.8906 22.8906C12.651 23.1302 12.3542 23.25 12 23.25ZM2 20.75C1.64583 20.75 1.34896 20.6302 1.10938 20.3906C0.869792 20.151 0.75 19.8542 0.75 19.5C0.75 19.1458 0.869792 18.849 1.10938 18.6094C1.34896 18.3698 1.64583 18.25 2 18.25H7C7.35417 18.25 7.65104 18.3698 7.89062 18.6094C8.13021 18.849 8.25 19.1458 8.25 19.5C8.25 19.8542 8.13021 20.151 7.89062 20.3906C7.65104 20.6302 7.35417 20.75 7 20.75H2ZM7 15.75C6.64583 15.75 6.34896 15.6302 6.10938 15.3906C5.86979 15.151 5.75 14.8542 5.75 14.5V13.25H2C1.64583 13.25 1.34896 13.1302 1.10938 12.8906C0.869792 12.651 0.75 12.3542 0.75 12C0.75 11.6458 0.869792 11.349 1.10938 11.1094C1.34896 10.8698 1.64583 10.75 2 10.75H5.75V9.5C5.75 9.14583 5.86979 8.84896 6.10938 8.60938C6.34896 8.36979 6.64583 8.25 7 8.25C7.35417 8.25 7.65104 8.36979 7.89062 8.60938C8.13021 8.84896 8.25 9.14583 8.25 9.5V14.5C8.25 14.8542 8.13021 15.151 7.89062 15.3906C7.65104 15.6302 7.35417 15.75 7 15.75ZM12 13.25C11.6458 13.25 11.349 13.1302 11.1094 12.8906C10.8698 12.651 10.75 12.3542 10.75 12C10.75 11.6458 10.8698 11.349 11.1094 11.1094C11.349 10.8698 11.6458 10.75 12 10.75H22C22.3542 10.75 22.651 10.8698 22.8906 11.1094C23.1302 11.349 23.25 11.6458 23.25 12C23.25 12.3542 23.1302 12.651 22.8906 12.8906C22.651 13.1302 22.3542 13.25 22 13.25H12ZM17 8.25C16.6458 8.25 16.349 8.13021 16.1094 7.89062C15.8698 7.65104 15.75 7.35417 15.75 7V2C15.75 1.64583 15.8698 1.34896 16.1094 1.10938C16.349 0.869792 16.6458 0.75 17 0.75C17.3542 0.75 17.651 0.869792 17.8906 1.10938C18.1302 1.34896 18.25 1.64583 18.25 2V3.25H22C22.3542 3.25 22.651 3.36979 22.8906 3.60938C23.1302 3.84896 23.25 4.14583 23.25 4.5C23.25 4.85417 23.1302 5.15104 22.8906 5.39062C22.651 5.63021 22.3542 5.75 22 5.75H18.25V7C18.25 7.35417 18.1302 7.65104 17.8906 7.89062C17.651 8.13021 17.3542 8.25 17 8.25ZM2 5.75C1.64583 5.75 1.34896 5.63021 1.10938 5.39062C0.869792 5.15104 0.75 4.85417 0.75 4.5C0.75 4.14583 0.869792 3.84896 1.10938 3.60938C1.34896 3.36979 1.64583 3.25 2 3.25H12C12.3542 3.25 12.651 3.36979 12.8906 3.60938C13.1302 3.84896 13.25 4.14583 13.25 4.5C13.25 4.85417 13.1302 5.15104 12.8906 5.39062C12.651 5.63021 12.3542 5.75 12 5.75H2Z" fill="#F5F5F5"/>
</svg>
