<svg width="53" height="117" viewBox="0 0 53 117" fill="none" xmlns="http://www.w3.org/2000/svg">
<path d="M1.10291 109.725V113.741C1.10291 114.868 2.03263 115.772 3.15856 115.74L47.2141 114.514C48.2966 114.484 49.1584 113.598 49.1584 112.515V99.1274L51.3906 5.37625C51.4098 4.57016 50.9439 3.82635 50.1968 3.52286C39.1568 -0.962308 30.3662 1.4741 26.6672 3.6271C26.2314 3.88079 25.9495 4.28216 25.8566 4.77785C23.4008 17.8817 19.9967 84.3023 7.89448 99.1274L1.44937 108.6C1.22362 108.932 1.10291 109.324 1.10291 109.725Z" fill="#9A9A9A" stroke="black" stroke-width="2"/>
<path d="M46.8497 99.0245H8.94986C8.28943 99.0245 7.67157 99.3506 7.29883 99.8958L1.34897 108.599C1.12163 108.931 1 109.325 1 109.727V113.146C1 114.264 1.91654 115.164 3.0344 115.145L46.8841 114.391C47.9751 114.372 48.8497 113.482 48.8497 112.391V101.025C48.8497 99.92 47.9543 99.0245 46.8497 99.0245Z" fill="black" stroke="black" stroke-width="2"/>
<circle cx="31.5621" cy="8.77896" r="3.18998" fill="black"/>
<circle cx="45.1452" cy="8.77896" r="3.18998" fill="black"/>
<circle cx="29.7098" cy="35.3278" r="3.18998" fill="black"/>
<circle cx="43.293" cy="35.3278" r="3.18998" fill="black"/>
<circle cx="29.2982" cy="44.7949" r="3.18998" fill="black"/>
<circle cx="42.8814" cy="44.7949" r="3.18998" fill="black"/>
<circle cx="28.0634" cy="54.2619" r="3.18998" fill="black"/>
<circle cx="42.264" cy="54.2619" r="3.18998" fill="black"/>
<circle cx="26.417" cy="72.8424" r="3.18998" fill="black"/>
<circle cx="40.8233" cy="72.8424" r="3.18998" fill="black"/>
<circle cx="23.7415" cy="91.5707" r="3.18998" fill="black"/>
<circle cx="39.5885" cy="91.5707" r="3.18998" fill="black"/>
<circle cx="24.7705" cy="82.5153" r="3.18998" fill="black"/>
<circle cx="40.4117" cy="82.5153" r="3.18998" fill="black"/>
<circle cx="27.0343" cy="63.5522" r="3.18998" fill="black"/>
<circle cx="41.6465" cy="63.5522" r="3.18998" fill="black"/>
<circle cx="30.3272" cy="26.4782" r="3.18998" fill="black"/>
<circle cx="43.9104" cy="26.4782" r="3.18998" fill="black"/>
<circle cx="30.9447" cy="17.6286" r="3.18998" fill="black"/>
<circle cx="44.5278" cy="17.6286" r="3.18998" fill="black"/>
</svg>
