<svg width="49" height="40" viewBox="0 0 49 40" fill="none" xmlns="http://www.w3.org/2000/svg">
<path d="M23.4184 1.4088C23.8077 0.76718 24.7388 0.767179 25.1282 1.4088L47.6249 38.4812C48.0293 39.1476 47.5495 40 46.77 40H1.77655C0.997019 40 0.517238 39.1476 0.921647 38.4812L23.4184 1.4088Z" fill="#F5F5F5"/>
<path d="M23.3155 6.17238C23.705 5.53143 24.6352 5.53143 25.0247 6.17238L43.1051 35.9275C43.51 36.5939 43.0303 37.4468 42.2505 37.4468H6.08973C5.30993 37.4468 4.83019 36.5939 5.23513 35.9275L23.3155 6.17238Z" fill="#FF0000"/>
<path d="M23.2012 10.0382C23.5903 9.3951 24.5232 9.3951 24.9123 10.0382L39.4789 34.1136C39.8821 34.78 39.4023 35.6312 38.6233 35.6312H9.49014C8.7112 35.6312 8.23133 34.78 8.63456 34.1136L23.2012 10.0382Z" fill="#F5F5F5"/>
<path d="M23.0887 13.889C23.4781 13.248 24.4085 13.248 24.7979 13.889L35.843 32.0694C36.2479 32.7359 35.7681 33.5887 34.9884 33.5887H12.8982C12.1185 33.5887 11.6387 32.7359 12.0436 32.0694L23.0887 13.889Z" fill="#FF0000"/>
</svg>
