<svg width="24" height="26" viewBox="0 0 24 26" fill="none" xmlns="http://www.w3.org/2000/svg">
<path d="M10.5313 25.5C9.96876 25.5 9.48438 25.3125 9.07813 24.9375C8.67188 24.5625 8.42709 24.1042 8.34376 23.5625L8.06251 21.5C7.79167 21.3958 7.53646 21.2708 7.29688 21.125C7.0573 20.9792 6.82292 20.8229 6.59376 20.6562L4.65626 21.4688C4.13542 21.6979 3.61459 21.7188 3.09376 21.5312C2.57292 21.3438 2.16667 21.0104 1.87501 20.5312L0.406256 17.9688C0.114589 17.4896 0.0312561 16.9792 0.156256 16.4375C0.281256 15.8958 0.562506 15.4479 1.00001 15.0938L2.65626 13.8438C2.63542 13.6979 2.62501 13.5573 2.62501 13.4219V12.5781C2.62501 12.4427 2.63542 12.3021 2.65626 12.1562L1.00001 10.9062C0.562506 10.5521 0.281256 10.1042 0.156256 9.5625C0.0312561 9.02083 0.114589 8.51042 0.406256 8.03125L1.87501 5.46875C2.16667 4.98958 2.57292 4.65625 3.09376 4.46875C3.61459 4.28125 4.13542 4.30208 4.65626 4.53125L6.59376 5.34375C6.82292 5.17708 7.06251 5.02083 7.31251 4.875C7.56251 4.72917 7.81251 4.60417 8.06251 4.5L8.34376 2.4375C8.42709 1.89583 8.67188 1.4375 9.07813 1.0625C9.48438 0.6875 9.96876 0.5 10.5313 0.5H13.4688C14.0313 0.5 14.5156 0.6875 14.9219 1.0625C15.3281 1.4375 15.5729 1.89583 15.6563 2.4375L15.9375 4.5C16.2083 4.60417 16.4635 4.72917 16.7031 4.875C16.9427 5.02083 17.1771 5.17708 17.4063 5.34375L19.3438 4.53125C19.8646 4.30208 20.3854 4.28125 20.9063 4.46875C21.4271 4.65625 21.8333 4.98958 22.125 5.46875L23.5938 8.03125C23.8854 8.51042 23.9688 9.02083 23.8438 9.5625C23.7188 10.1042 23.4375 10.5521 23 10.9062L21.3438 12.1562C21.3646 12.3021 21.375 12.4427 21.375 12.5781V13.4219C21.375 13.5573 21.3542 13.6979 21.3125 13.8438L22.9688 15.0938C23.4063 15.4479 23.6875 15.8958 23.8125 16.4375C23.9375 16.9792 23.8542 17.4896 23.5625 17.9688L22.0625 20.5312C21.7708 21.0104 21.3646 21.3438 20.8438 21.5312C20.3229 21.7188 19.8021 21.6979 19.2813 21.4688L17.4063 20.6562C17.1771 20.8229 16.9375 20.9792 16.6875 21.125C16.4375 21.2708 16.1875 21.3958 15.9375 21.5L15.6563 23.5625C15.5729 24.1042 15.3281 24.5625 14.9219 24.9375C14.5156 25.3125 14.0313 25.5 13.4688 25.5H10.5313ZM10.75 23H13.2188L13.6563 19.6875C14.3021 19.5208 14.901 19.276 15.4531 18.9531C16.0052 18.6302 16.5104 18.2396 16.9688 17.7812L20.0625 19.0625L21.2813 16.9375L18.5938 14.9062C18.6979 14.6146 18.7708 14.3073 18.8125 13.9844C18.8542 13.6615 18.875 13.3333 18.875 13C18.875 12.6667 18.8542 12.3385 18.8125 12.0156C18.7708 11.6927 18.6979 11.3854 18.5938 11.0938L21.2813 9.0625L20.0625 6.9375L16.9688 8.25C16.5104 7.77083 16.0052 7.36979 15.4531 7.04688C14.901 6.72396 14.3021 6.47917 13.6563 6.3125L13.25 3H10.7813L10.3438 6.3125C9.69792 6.47917 9.09896 6.72396 8.54688 7.04688C7.9948 7.36979 7.48959 7.76042 7.03126 8.21875L3.93751 6.9375L2.71876 9.0625L5.40626 11.0625C5.30209 11.375 5.22917 11.6875 5.18751 12C5.14584 12.3125 5.12501 12.6458 5.12501 13C5.12501 13.3333 5.14584 13.6562 5.18751 13.9688C5.22917 14.2812 5.30209 14.5938 5.40626 14.9062L2.71876 16.9375L3.93751 19.0625L7.03126 17.75C7.48959 18.2292 7.9948 18.6302 8.54688 18.9531C9.09896 19.276 9.69792 19.5208 10.3438 19.6875L10.75 23ZM12.0625 17.375C13.2708 17.375 14.3021 16.9479 15.1563 16.0938C16.0104 15.2396 16.4375 14.2083 16.4375 13C16.4375 11.7917 16.0104 10.7604 15.1563 9.90625C14.3021 9.05208 13.2708 8.625 12.0625 8.625C10.8333 8.625 9.79688 9.05208 8.95313 9.90625C8.10938 10.7604 7.68751 11.7917 7.68751 13C7.68751 14.2083 8.10938 15.2396 8.95313 16.0938C9.79688 16.9479 10.8333 17.375 12.0625 17.375Z" fill="#393939"/>
</svg>
